<?xml version="1.0" ?><svg viewBox="0 0 40 40" xmlns="http://www.w3.org/2000/svg"><title/><g id="Twitter"><path d="M15.49,31A15.65,15.65,0,0,0,31.25,15.27c0-.24,0-.48,0-.71A11.41,11.41,0,0,0,34,11.69a11,11,0,0,1-3.18.87A5.56,5.56,0,0,0,33.25,9.5a11,11,0,0,1-3.51,1.34,5.54,5.54,0,0,0-9.44,5.05A15.68,15.68,0,0,1,8.88,10.1a5.55,5.55,0,0,0,1.71,7.4,5.52,5.52,0,0,1-2.51-.69v.07a5.55,5.55,0,0,0,4.44,5.43,5.55,5.55,0,0,1-2.5.09,5.56,5.56,0,0,0,5.18,3.85,11.08,11.08,0,0,1-6.88,2.37A9.74,9.74,0,0,1,7,28.54,15.67,15.67,0,0,0,15.49,31"/></g></svg>